<svg width="656" height="591" viewBox="0 0 656 591" fill="none" xmlns="http://www.w3.org/2000/svg">
<path d="M430.29 272.26C428.13 272.26 426.46 272.26 424.03 272.26C426.27 264.22 422.41 260 415.4 256.97C410.45 254.83 409.75 249.21 409.63 244.54C409.46 237.82 412.28 231.89 418.85 229.26C423.19 227.52 424.4 224.88 424.06 220.73C423.98 219.76 424.22 218.76 424.34 217.52C426.27 217.52 428.07 217.52 429.92 217.52C430.09 218 430.4 218.42 430.35 218.79C429.59 224.44 431.72 227.72 437.03 230.55C440.76 232.54 442.95 237.41 446.5 241.84C449.88 241.84 454.86 241.84 460.17 241.84C460.17 243.54 460.17 245.19 460.17 247.48C455.87 247.48 451.53 247.94 447.35 247.32C444.47 246.89 443.66 248.07 443.27 250.15C442.42 254.67 439.21 257.26 435.45 258.68C431.62 260.12 430.45 262.45 430.59 266.15C430.66 268 430.42 269.88 430.29 272.26ZM434.59 244.22C434.65 240.79 430.69 236.65 427.14 236.43C423.98 236.23 420.2 240.18 420.03 243.86C419.86 247.41 423.37 250.99 427.11 251.1C430.8 251.21 434.53 247.78 434.59 244.22Z" fill="white"/>
<path d="M245.94 254.18C242.09 254.03 236.6 257.13 235.86 260.54C235.17 263.72 233.67 263.4 231.58 262.61C228.14 261.3 224.89 260.43 221.42 262.98C220.66 263.54 217.86 262.52 216.95 261.43C214.6 258.61 213.77 254.36 208.61 254.77C206.83 254.91 206.39 249.52 206.95 247.45C207.63 244.97 207.93 241.84 206.98 239.59C205.61 236.31 206.65 233.96 209.88 232.46C212.82 231.09 214.92 228.01 217.65 226.04C218.87 225.16 220.71 224.89 222.29 224.82C225.02 224.7 227.96 225.6 230.44 224.85C233.17 224.03 234.45 224.39 236.16 226.6C238.28 229.33 239.88 233.34 244.78 232.14C245.24 232.03 246.58 233.58 246.71 234.47C246.91 235.84 246.45 237.31 246.2 238.73C245.75 241.32 244.04 245.5 244.97 246.2C248.71 248.98 245.74 251.57 245.94 254.18ZM226.56 234.42C221.23 234.36 217.58 237.91 217.51 243.21C217.44 248.24 221.52 252.69 226.13 252.62C231.01 252.55 235.21 248.38 235.32 243.52C235.44 238.31 231.75 234.48 226.56 234.42Z" fill="white"/>
<path d="M160 336.2C151.51 324.92 155.13 313.04 166.13 310.02C171.37 308.59 176.72 310.46 180.29 315.04C184.04 319.86 185.31 325.22 182.52 330.79C180.28 335.26 177.03 338.8 171.56 339.77C169.79 340.08 167.96 341.61 166.73 343.06C163.46 346.91 160.66 351.15 157.39 354.99C154.44 358.47 151.1 358.53 147.98 355.62C144.91 352.76 144.82 349.42 148.16 346.29C151.95 342.77 156.04 339.56 160 336.2ZM169.33 318.76C166.22 318.7 163.21 321.63 163.35 324.86C163.5 328.24 165.77 330.04 168.83 330.54C171.66 331 174.88 327.97 175.05 325.14C175.25 322.05 172.35 318.81 169.33 318.76Z" fill="white"/>
<path d="M621.33 438.76C613.46 438.32 606.32 437.92 598.53 437.48C599.21 431.36 599.84 425.71 600.51 419.77C608.32 419.77 615.77 419.77 623.84 419.77C623.03 425.91 622.22 432.05 621.33 438.76Z" fill="white"/>
<path d="M31.3198 419.78C39.0798 419.78 46.5098 419.78 54.3298 419.78C55.0398 425.68 55.7198 431.35 56.4798 437.6C49.3198 437.94 42.7398 438.34 36.1498 438.47C35.3498 438.49 33.9598 437.13 33.7998 436.24C32.8298 430.87 32.1398 425.44 31.3198 419.78Z" fill="white"/>
<path d="M186.52 317.81C185.2 316.05 184.19 314.65 183.12 313.31C182.14 312.09 181.08 310.93 179.08 308.61C182.16 306.01 185.21 303.63 188.04 301C191.05 298.2 194.24 295.72 195.45 291.22C196.32 288 199.81 286.78 203.29 287.22C206.62 287.64 208.92 289.59 209.67 292.86C210.53 296.6 209.51 300.6 205.98 301.7C197.77 304.25 194 311.71 187.9 316.51C187.47 316.84 187.1 317.26 186.52 317.81Z" fill="white"/>
<path d="M174.15 142.55C174.11 146.27 170.72 149.5 166.88 149.49C163.12 149.48 159.8 146.16 159.76 142.35C159.71 138.27 163.1 134.8 167.05 134.87C171.01 134.93 174.19 138.37 174.15 142.55Z" fill="white"/>
<path d="M480.55 142.35C480.59 137.84 483.52 134.71 487.57 134.85C491.65 134.99 494.69 138.32 494.57 142.55C494.46 146.58 491.33 149.63 487.43 149.52C483.33 149.4 480.51 146.46 480.55 142.35Z" fill="white"/>
<path d="M86.7496 228.34C82.4496 228.26 79.6096 225.21 79.7096 220.78C79.7996 216.74 82.9796 213.76 86.9996 213.96C90.6996 214.14 93.7496 217.63 93.6696 221.59C93.6096 225.28 90.4096 228.4 86.7496 228.34Z" fill="white"/>
<path d="M560.51 221.31C560.53 217.19 563.52 214.09 567.49 214.08C571.37 214.07 574.46 217.04 574.51 220.82C574.55 224.85 571.49 228.19 567.65 228.3C563.62 228.41 560.49 225.35 560.51 221.31Z" fill="white"/>
<path d="M151.82 317.56C148.74 315.47 145.61 313.17 142.3 311.16C139.86 309.67 140.01 308.22 141.67 306.33C143.27 304.5 144.79 302.61 146.67 300.35C150.65 303.91 153.91 306.83 157.38 309.93C155.45 312.58 153.7 314.98 151.82 317.56Z" fill="white"/>
<path d="M157.88 306.57C156.73 302.06 155.65 297.85 154.65 293.95C155.37 293.29 155.54 293 155.79 292.91C164.4 289.84 165.02 290.21 166.1 299.08C166.29 300.63 166.32 302.2 166.44 303.94C163.67 304.8 161.11 305.58 157.88 306.57Z" fill="white"/>
<path d="M168.62 358.24C168.3 354.91 167.85 351.51 167.69 348.09C167.51 344.2 170.86 344.72 173.17 344.08C175.68 343.39 176.5 344.94 176.82 347.05C177 348.19 177.28 349.31 177.46 350.45C178.75 358.65 177.57 359.74 168.62 358.24Z" fill="white"/>
<path d="M178.42 341.56C181.43 338.28 183.72 335.77 186.58 332.65C188.44 335.21 192.23 338.2 191.82 340.41C191.33 343.05 187.54 345.94 184.59 346.88C183.22 347.31 180.46 343.41 178.42 341.56Z" fill="white"/>
<path d="M408.19 242.17C409.26 245.99 408.03 247.66 404.26 247.53C400.82 247.41 397.38 247.5 393.58 247.5C393.44 245.67 393.32 244.16 393.17 242.16C398.35 242.17 403.16 242.17 408.19 242.17Z" fill="white"/>
<path d="M456.82 428.67C460.36 428.67 463.29 428.67 466.19 428.67C466.19 423.78 466.19 419.23 466.19 414.55C462.92 414.55 459.86 414.55 456.82 414.55C456.82 419.39 456.82 423.94 456.82 428.67ZM466.12 394.59C462.88 394.59 459.94 394.59 457.02 394.59C457.02 398.94 457.02 403.03 457.02 407.12C460.36 407.12 463.32 407.12 466.12 407.12C466.12 402.8 466.12 398.8 466.12 394.59ZM525.34 414.41C525.34 419.48 525.34 424.14 525.34 428.78C527.81 428.78 529.92 428.78 532.23 428.78C532.23 423.88 532.23 419.21 532.23 414.41C529.79 414.41 527.66 414.41 525.34 414.41ZM442.39 414.44C442.39 419.55 442.39 424.22 442.39 428.81C445.01 428.81 447.12 428.81 449.4 428.81C449.4 423.94 449.4 419.29 449.4 414.44C446.79 414.44 444.54 414.44 442.39 414.44ZM518.05 428.88C518.05 423.8 518.05 419.15 518.05 414.53C515.57 414.53 513.47 414.53 511.38 414.53C511.38 419.43 511.38 424.11 511.38 428.88C513.69 428.88 515.66 428.88 518.05 428.88ZM472.33 414.43C472.33 419.27 472.33 423.93 472.33 428.69C474.67 428.69 476.73 428.69 478.85 428.69C478.85 423.76 478.85 419.13 478.85 414.43C476.5 414.43 474.53 414.43 472.33 414.43ZM491.78 428.72C491.78 423.69 491.78 419.15 491.78 414.61C489.43 414.61 487.39 414.61 485.35 414.61C485.35 419.48 485.35 424.03 485.35 428.72C487.57 428.72 489.52 428.72 491.78 428.72ZM504.69 428.82C504.69 424.01 504.69 419.37 504.69 414.57C502.37 414.57 500.31 414.57 498.22 414.57C498.22 419.47 498.22 424.11 498.22 428.82C500.51 428.82 502.46 428.82 504.69 428.82ZM525.25 394.49C525.25 398.88 525.25 402.99 525.25 407.13C527.6 407.13 529.82 407.13 532.09 407.13C532.09 402.75 532.09 398.63 532.09 394.49C529.69 394.49 527.6 394.49 525.25 394.49ZM449.48 394.59C446.67 394.59 444.44 394.59 442.33 394.59C442.33 398.93 442.33 402.99 442.33 407C444.96 407 447.17 407 449.48 407C449.48 402.75 449.48 398.8 449.48 394.59ZM472.45 394.5C472.45 398.78 472.45 402.94 472.45 407.01C474.84 407.01 476.9 407.01 478.79 407.01C478.79 402.6 478.79 398.54 478.79 394.5C476.53 394.5 474.67 394.5 472.45 394.5ZM485.21 406.96C487.69 406.96 489.76 406.96 491.83 406.96C491.83 402.65 491.83 398.68 491.83 394.7C489.46 394.7 487.4 394.7 485.21 394.7C485.21 398.9 485.21 402.76 485.21 406.96ZM504.68 394.57C502.39 394.57 500.34 394.57 498.21 394.57C498.21 398.93 498.21 403.01 498.21 407C500.54 407 502.59 407 504.68 407C504.68 402.67 504.68 398.71 504.68 394.57ZM511.39 394.49C511.39 398.94 511.39 403.01 511.39 407.11C513.73 407.11 515.8 407.11 518.05 407.11C518.05 402.78 518.05 398.72 518.05 394.49C515.75 394.49 513.78 394.49 511.39 394.49Z" fill="white"/>
<path d="M655.06 338.15C655.06 337.31 654.87 336.46 654.74 335.44C635.27 331.45 615.88 327.48 595.63 323.34C597.43 321.98 598.3 321.25 599.25 320.62C609.86 313.6 620.37 306.42 631.17 299.7C634.91 297.37 635.35 295.18 633.85 291.32C625.96 270.98 618.23 250.58 610.6 230.14C609.52 227.26 608.04 226.9 605.39 227.65C594.7 230.71 583.99 233.69 573.26 236.59C568.69 237.82 563.24 240.73 559.64 239.28C556.04 237.83 554.41 231.77 551.6 227.96C549.51 225.12 550.05 222.93 551.79 220.17C560.36 206.61 568.66 192.87 577.28 179.34C578.92 176.77 578.53 175.45 576.5 173.59C565.63 163.62 554.86 153.54 544.04 143.51C540.24 139.99 536.4 136.53 532.55 133.01C530.67 134.26 529.1 135.27 527.55 136.33C516.11 144.19 504.63 151.99 493.26 159.95C490.23 162.08 487.8 162.82 484.59 160.05C481.22 157.14 477.39 154.72 473.59 152.36C471.2 150.87 470.78 149.02 471.24 146.5C473.9 131.86 476.3 117.17 479.27 102.59C480.04 98.8199 478.96 97.3999 475.82 96.1499C467.22 92.7499 458.71 89.1399 450.14 85.6599C438.25 80.8299 426.33 76.0499 414.03 71.0899C410.64 77.5399 407.58 83.2599 404.6 89.0299C398.5 100.85 392.32 112.63 386.43 124.55C383.46 130.56 385.65 135.68 391.81 138.28C393.94 139.18 396.14 139.91 398.33 140.64C430.62 151.51 459.97 167.69 486.06 189.6C515.41 214.25 538.52 243.7 553.79 279.05C571.8 320.76 578.35 364.22 572.48 409.27C570.6 423.69 566.85 437.88 563.75 452.13C563.44 453.57 561.74 455.63 560.51 455.76C556.27 456.21 551.96 455.93 547.19 455.93C548.14 452.59 548.87 449.83 549.7 447.1C560.35 411.89 563.13 375.94 556.71 339.85C542.6 260.53 497.27 204.14 426.63 167.18C419.37 163.38 411.63 160.38 403.88 157.65C396.7 155.12 391.09 160.29 393.24 167.57C393.97 170.05 397.17 172.3 399.77 173.63C410.94 179.36 422.72 184 433.52 190.34C473.72 213.96 504.81 246.26 524.27 289C528.79 298.93 532.09 309.42 536.18 320.27C527.18 320.27 519.3 320.27 511.2 320.27C509.74 314.11 506.88 308.79 501.36 305.5C498.81 303.98 498.34 301.99 498.41 299.37C498.6 292.86 498.68 286.35 498.75 279.84C498.79 275.95 493.76 270.44 490.21 270.37C487.11 270.31 481.44 276.25 481.43 279.64C481.41 286.3 481.32 292.95 481.48 299.6C481.55 302.49 480.55 304.25 478.14 305.98C465.63 314.93 465.84 331.39 478.41 340.31C479.68 341.21 480.95 342.12 482.9 343.51C474.4 344.55 472.66 346.98 474.74 353.38C476.43 358.6 483.31 362.74 490.14 362.66C498.03 362.56 505.21 358.44 506.33 352.69C507.5 346.68 507.11 343.01 500.1 343.7C499.55 343.75 498.94 343.28 498.56 343.13C504.79 335.7 512.23 331.46 522.11 333.09C523.37 333.3 524.71 333.01 526.01 332.99C538.71 332.75 538.71 332.75 540.77 345.15C540.86 345.72 541.06 346.28 541.11 346.85C541.83 355.88 542.54 364.9 543.27 374.1C505.88 374.1 469.38 374.1 432.68 374.1C432.68 370.58 432.61 367.4 432.72 364.23C432.75 363.3 433.02 362.1 433.64 361.5C438.72 356.58 444 351.86 449 346.86C450.24 345.62 451.3 343.6 451.37 341.9C451.62 335.55 451.63 329.16 451.28 322.81C451.17 320.78 450.2 318.26 448.74 316.94C442.53 311.32 435.97 306.09 429.56 300.68C412.1 285.95 394.63 271.23 377.27 256.38C375.82 255.14 374.35 252.93 374.34 251.17C374.24 229.76 374.41 208.35 374.51 186.94C374.52 185.24 374.51 183.55 374.51 181.95C384.08 180.2 384.23 180.2 384.1 173.75C384.03 170.34 384.19 166.45 382.61 163.72C381.61 161.98 377.62 161.96 374.9 161.16C374.9 143.61 374.9 125.88 374.9 108.19C384.07 107.01 384.5 106.49 384.04 97.1599C383.91 94.5599 383.65 91.9699 383.5 89.3699C381.93 61.8999 361.5 38.4599 334.57 33.0299C333.38 32.7899 331.8 31.0099 331.65 29.7799C331.03 24.9599 332.09 20.8099 335.59 16.7799C339.72 12.0199 338.1 5.28994 333.16 1.99994C327.97 -1.46006 321.17 -0.150057 317.45 5.01994C314.16 9.59994 315.24 16.0399 319.81 19.7699C320.71 20.5099 321.81 21.6199 321.89 22.6399C322.16 25.9099 321.99 29.2099 321.99 32.3099C307.43 36.1699 300.72 39.2699 294.07 44.8299C277.53 58.6499 270.05 76.4999 269.98 97.8399C269.95 106.16 270.36 106.98 278.49 108.13C278.73 108.16 278.94 108.45 279.19 108.65C279.19 126.39 279.19 144.15 279.19 161.89C271.36 162.39 270.39 163.02 269.89 167.79C268.76 178.66 269.25 179.42 279.25 182.27C279.32 182.67 279.45 183.09 279.45 183.51C279.46 206.08 279.51 228.65 279.35 251.22C279.34 252.76 278.16 254.71 276.93 255.77C253.22 276.32 229.39 296.74 205.73 317.34C204.14 318.72 202.98 321.37 202.84 323.5C202.44 329.84 202.55 336.22 202.72 342.58C202.76 343.95 203.57 345.59 204.55 346.58C209.62 351.69 214.86 356.63 220.01 361.66C220.49 362.13 220.95 362.87 220.97 363.49C221.06 367.04 221.01 370.59 221.01 374.07C184.21 374.07 148.12 374.07 111.03 374.07C112.2 362.04 113.48 350.44 114.39 338.8C114.76 333.98 116.85 332.67 121.5 332.83C131.56 333.17 141.65 332.94 151.92 332.94C151.47 328.85 151.02 324.89 150.53 320.44C140.13 320.44 129.67 320.44 118.99 320.44C119.24 319.09 119.3 318.21 119.57 317.41C120.72 313.99 121.87 310.56 123.12 307.18C144.81 248.33 184.51 206.06 240.95 179.22C246.43 176.62 252.1 174.41 257.51 171.68C261.08 169.88 262.34 165.22 260.78 161.52C259.31 158.03 255.43 156.2 251.47 157.19C249.93 157.58 248.39 158 246.92 158.58C190.06 181.07 147.51 219.64 119.69 273.89C93.4498 325.04 89.3498 379.06 101.83 434.7C103.4 441.68 105.54 448.53 107.55 455.92C104.04 455.92 100.97 455.6 97.9998 456C93.6698 456.58 92.0098 454.64 90.8698 450.72C84.8598 430.08 81.5298 409.02 80.6498 387.57C78.4198 332.97 93.0198 283.25 124.27 238.46C148.27 204.06 178.46 176.41 215.97 157.43C230.23 150.21 245.46 144.89 260.33 138.93C269.2 135.38 271.23 130.67 266.91 122.48C264.89 118.65 262.96 114.76 260.96 110.92C254.13 97.74 247.3 84.5599 240.4 71.2499C238.23 71.9999 236.43 72.5099 234.71 73.2199C216.02 80.9599 197.38 88.81 178.64 96.42C175.39 97.74 174.46 99.1799 175.15 102.77C178 117.53 180.54 132.35 182.95 147.19C183.2 148.73 182.33 151.12 181.14 152.1C177.37 155.23 173.11 157.75 169.24 160.77C166.89 162.61 165.2 162.41 162.84 160.67C157.73 156.9 152.35 153.49 147.06 149.96C138.68 144.35 130.29 138.75 121.58 132.93C107.11 146.53 92.8498 160.06 78.4198 173.4C75.9898 175.64 75.7998 177.26 77.5398 179.96C86.2298 193.45 94.7998 207.02 103.24 220.67C104.12 222.1 104.6 224.6 103.95 225.99C102.07 230.03 99.6498 233.85 97.1398 237.55C96.4798 238.52 94.5698 239.38 93.4598 239.16C88.7998 238.23 84.2098 236.93 79.6298 235.67C68.8198 232.71 58.0298 229.69 47.3098 226.72C46.5898 227.83 46.0798 228.38 45.8198 229.04C37.3698 250.56 28.9898 272.11 20.4798 293.6C19.4598 296.19 20.1998 297.47 22.3498 298.88C32.0298 305.2 41.6298 311.66 51.2398 318.09C53.4298 319.55 55.5898 321.06 58.7998 323.26C38.7798 327.54 20.0598 331.55 0.959804 335.64C0.959804 337.17 0.959804 338.58 0.959804 340C0.919804 358.52 0.919799 377.04 0.829799 395.56C0.789799 403.4 0.729791 403.34 8.39979 404.7C25.1898 407.67 41.9798 410.66 58.7498 413.79C60.1898 414.06 62.4098 415.17 62.6198 416.21C64.3198 424.82 65.6298 433.51 67.0898 442.37C51.2298 448.52 35.4298 454.64 19.2298 460.91C24.0198 475.28 28.5898 489.01 33.2098 502.89C47.0398 495.34 49.6598 489.03 44.7098 476.59C42.8098 471.82 45.1598 468.52 50.3398 468.55C71.4598 468.66 92.5798 468.79 113.71 468.82C143.37 468.86 173.03 468.8 202.69 468.87C204.24 468.87 206.62 469.19 207.18 470.17C209.12 473.6 210.43 477.39 212.35 481.91C208.95 481.91 206.54 481.91 204.13 481.91C183.44 481.91 162.75 481.95 142.06 481.92C117.32 481.88 92.5798 481.77 67.8398 481.7C62.9198 481.69 59.7698 484.43 59.7198 488.74C59.6698 493.33 62.7698 496.41 67.6798 496.61C68.2598 496.63 68.8398 496.62 69.4198 496.62C240 496.62 410.57 496.62 581.15 496.59C582.58 496.59 584.06 496.49 585.42 496.1C589.6 494.91 591.6 491.73 590.95 487.58C590.37 483.91 587.24 481.43 583.16 481.52C579.98 481.59 576.8 481.86 573.62 481.86C531.23 481.91 488.84 481.92 446.45 481.93C445.22 481.93 443.98 481.76 442.26 481.64C443.25 478.97 444.35 476.75 444.88 474.42C445.94 469.78 448.62 468.71 453.24 468.72C503.01 468.81 552.78 468.64 602.54 468.53C607.75 468.52 610.39 472.7 608.08 477.4C603.75 486.24 604.82 493.59 611.48 498.34C614.26 500.32 617.48 501.67 621.23 503.71C625.4 490.81 629.19 478.4 633.47 466.16C635.07 461.59 633.66 460 629.47 458.46C616.33 453.62 603.33 448.39 590.34 443.13C589.16 442.65 587.59 440.71 587.75 439.7C589.09 431.32 590.79 423 592.42 414.49C611.99 410.97 631.58 407.35 651.21 404.02C654.36 403.48 655.17 402.39 655.15 399.35C655.01 378.95 655.08 358.55 655.06 338.15ZM447.36 139.73C435.87 134.57 424.44 129.44 412.2 123.94C415.61 116.09 419.02 108.27 422.57 100.1C433.52 104.59 444.03 108.9 454.92 113.37C452.35 122.32 449.86 131.01 447.36 139.73ZM532.39 205.41C523.65 197.62 514.86 189.79 505.56 181.5C513.45 174.75 520.56 168.68 527.91 162.39C534.92 169.08 541.77 175.62 548.91 182.44C542.92 190.77 537.19 198.73 532.39 205.41ZM489.79 330.53C485.82 330.52 482.22 326.75 482.27 322.67C482.32 318.87 486 315.47 489.97 315.57C494.05 315.67 497.61 319.09 497.54 322.87C497.47 327.02 493.92 330.54 489.79 330.53ZM201.52 112.16C210.59 108.42 219.81 105.04 228.91 101.38C231.25 100.44 232.33 101.08 233.19 103.2C235.96 110.01 238.79 116.8 241.73 123.91C229.45 129.62 217.72 135.08 205.53 140.75C203.45 132.38 201.3 124.17 199.49 115.89C199.24 114.81 200.46 112.6 201.52 112.16ZM126.01 161.91C133.73 168.54 140.9 174.71 148.04 180.85C147.61 181.59 147.47 182.04 147.16 182.31C138.79 189.85 130.41 197.36 121.95 204.96C117.38 198.77 111.52 190.83 105.83 183.11C112.59 176.01 119.12 169.15 126.01 161.91ZM63.0698 392.51C49.7098 390.13 37.1498 387.9 24.7198 385.69C24.7198 374.26 24.7198 363.32 24.7198 352.02C37.7798 349.4 50.5898 346.83 63.0698 344.33C63.0698 360.6 63.0698 376.27 63.0698 392.51ZM49.2598 290.43C48.3598 289.9 47.3998 287.93 47.7198 287.09C51.8098 276.03 56.1298 265.05 60.5198 253.69C69.1998 256.47 77.6598 259.19 86.1898 261.92C80.9198 275.5 75.7798 288.75 70.4798 302.43C63.2798 298.4 56.1998 294.53 49.2598 290.43ZM220.63 456.42C206.91 456.42 193.28 456.42 179.07 456.42C179.07 449.91 179.07 443.6 179.07 436.91C170.79 436.91 163.07 436.91 154.69 436.91C154.69 443.42 154.69 449.83 154.69 456.47C148.62 456.47 143.2 456.47 137.87 456.47C137.69 455.97 137.52 455.71 137.5 455.44C137 447.25 137 447.25 128.84 447.5C119.41 447.78 118.82 447.87 117.44 438.84C114.85 421.88 113.02 404.81 110.79 387.09C148.35 387.09 184.31 387.09 220.63 387.09C220.63 410.32 220.63 433.2 220.63 456.42ZM364.25 86.3799C359.8 86.3799 355.4 86.3799 351.01 86.3799C346.56 86.3799 342.12 86.3799 337.54 86.3799C336.22 74.6099 334.94 63.2399 333.66 51.8499C347.75 54.1499 362.61 70.6199 364.25 86.3799ZM358.83 104.83C358.83 124.15 358.83 143.14 358.83 162.4C337.61 162.4 316.56 162.4 295.1 162.4C295.1 143.36 295.1 124.24 295.1 104.83C316.27 104.83 337.42 104.83 358.83 104.83ZM358.71 181.35C358.71 201.18 358.71 220.69 358.71 241.21C347.87 232.3 337.58 223.85 326.94 215.11C316.38 223.9 305.91 232.62 294.93 241.75C294.93 221.24 294.93 201.4 294.93 181.34C316.24 181.35 337.27 181.35 358.71 181.35ZM319.84 51.8699C318.6 63.1499 317.37 74.3299 316.09 85.9699C307.49 85.9699 298.69 85.9699 289.87 85.9699C290.59 71.4799 304.76 55.2699 319.84 51.8699ZM326.44 235.8C355.7 260.05 384.74 284.13 413.79 308.21C413.64 308.56 413.5 308.9 413.36 309.25C407.65 309.25 401.93 309.46 396.24 309.12C394.63 309.02 392.98 307.46 391.58 306.3C371.64 289.84 351.74 273.33 331.83 256.84C330.18 255.48 328.48 254.17 326.56 252.64C316.35 261.08 306.31 269.32 296.33 277.64C285.12 286.98 273.92 296.33 262.83 305.81C259.78 308.42 256.55 309.55 252.57 309.29C248.73 309.04 244.86 309.24 241 309.24C240.85 308.88 240.71 308.52 240.56 308.16C269.02 284.17 297.5 260.18 326.44 235.8ZM342.43 294.78C342.35 302.7 335.45 309.2 327.07 309.23C318.06 309.27 311.29 302.94 311.22 294.43C311.15 285.89 318.04 278.73 326.32 278.74C334.78 278.75 342.52 286.45 342.43 294.78ZM219.38 337.16C219.3 335.99 219.15 334.74 219.13 333.48C219.09 330.62 219.12 327.76 219.12 324.55C291.07 324.55 362.58 324.55 434.57 324.55C434.57 328.87 434.57 332.74 434.57 337.16C362.84 337.16 291.27 337.16 219.38 337.16ZM417.15 378.62C417.53 379.06 417.36 380.02 417.36 380.73C417.37 405.03 417.38 429.33 417.37 453.62C417.37 454.04 417.22 454.46 417.06 455.26C411.12 455.26 405.14 455.26 398.68 455.26C398.58 453.8 398.38 452.28 398.38 450.75C398.34 430.07 398.38 409.38 398.25 388.7C398.22 384.56 399.09 381.14 402.28 378.23C403.48 377.13 404.26 375.08 404.39 373.4C404.7 369.55 404.49 365.66 404.49 361.47C400.75 361.76 397.69 360.97 398.37 356.55C398.55 355.4 400.22 353.66 401.29 353.59C406.62 353.26 411.98 353.4 417.33 353.36C419.63 353.34 421.76 353.41 421.73 356.63C421.7 359.45 421.02 361.52 417.61 361.36C416.78 361.32 415.94 361.45 414.62 361.54C415.68 367.38 412.63 373.43 417.15 378.62ZM377.33 374.9C377.36 375.78 377.98 376.89 378.68 377.46C382.32 380.44 382.74 384.31 382.71 388.72C382.55 408.83 382.66 428.93 382.67 449.04C382.67 451.03 382.67 453.02 382.67 455.32C376.37 455.32 370.51 455.32 364.1 455.32C363.97 453.6 363.74 451.94 363.75 450.28C363.76 428.29 363.73 406.31 363.95 384.32C363.98 381.52 365.74 378.77 366.08 375.92C366.63 371.36 366.67 366.75 366.96 361.6C363.51 361.57 361.27 361.17 361.46 357.37C361.61 354.42 362.46 353.2 365.5 353.3C370.12 353.45 374.76 353.44 379.38 353.23C382.48 353.09 384.02 354.25 384.03 357.36C384.04 360.52 382.44 361.78 379.35 361.37C378.81 361.3 378.24 361.44 377.27 361.52C377.26 366.04 377.19 370.47 377.33 374.9ZM332.45 374.64C338.56 383.68 335.12 393.24 335.54 402.44C336.26 418.31 335.73 434.24 335.72 450.15C335.72 451.7 335.72 453.25 335.72 455.12C329.48 455.12 323.77 455.12 317.71 455.12C317.63 453.56 317.48 452.02 317.48 450.48C317.46 427.78 317.41 405.07 317.56 382.37C317.57 380.53 319.01 378.69 319.84 376.87C320.36 375.74 321.41 374.67 321.47 373.54C321.68 369.67 321.55 365.78 321.55 361.53C318.67 361.24 315.16 361.75 315.52 356.98C315.71 354.43 316.44 353.31 319.05 353.35C323.96 353.43 328.88 353.38 333.8 353.31C336.43 353.27 338.44 353.9 338.48 357.03C338.52 360.09 337.03 361.57 333.93 361.4C333.37 361.37 332.79 361.5 332.13 361.56C332.12 366.04 330.4 371.61 332.45 374.64ZM289.54 378.55C290.14 379.26 289.83 380.79 289.84 381.94C289.99 405.06 290.06 428.19 290.34 451.31C290.38 454.82 289.19 455.86 285.87 455.72C281.27 455.52 276.66 455.67 271.52 455.67C271.42 453.94 271.28 452.67 271.28 451.39C271.29 429.57 271.3 407.74 271.39 385.92C271.4 384.25 271.39 381.82 272.39 381.03C279.28 375.68 276.08 368.45 276.74 362.09C274.52 361.35 272.07 361.25 271.05 359.99C270.13 358.85 270.38 356.32 270.9 354.64C271.13 353.9 273.27 353.43 274.56 353.39C279.32 353.24 284.1 353.45 288.86 353.27C291.95 353.15 293.99 353.96 294.08 357.38C294.17 360.7 292.14 361.55 289.27 361.39C288.72 361.36 288.15 361.52 287.09 361.65C288.07 367.31 285.11 373.3 289.54 378.55ZM254.01 381.54C255.08 382.37 255.41 384.66 255.42 386.28C255.55 407.81 255.47 429.35 255.68 450.88C255.72 454.63 254.79 456.08 250.89 455.81C246.45 455.49 241.97 455.74 236.75 455.74C236.75 453.69 236.75 451.89 236.75 450.08C236.73 427.1 236.57 404.12 236.8 381.14C236.85 376.17 238.32 371.23 239.04 366.26C239.24 364.86 239.07 363.41 239.07 362.24C236.82 361.26 234.59 360.99 233.66 359.74C231.53 356.9 233.64 353.4 237.31 353.34C242.08 353.27 246.85 353.43 251.62 353.37C254.23 353.34 256.15 353.7 256.08 357.04C256.01 360.13 254.79 361.63 251.63 361.4C250.93 361.35 250.22 361.51 249.08 361.61C249.45 368.65 246.94 376.07 254.01 381.54ZM424.2 480.4C423.6 481.48 421.06 481.9 419.4 481.9C388.17 481.97 356.93 481.93 325.7 481.93C295.62 481.93 265.55 481.88 235.47 482.06C231.71 482.08 229.57 481.07 228.48 477.48C227.65 474.75 226.48 472.13 225.26 468.93C293.4 468.93 360.86 468.93 429.03 468.93C427.35 473.09 426.14 476.95 424.2 480.4ZM540.18 418.83C539.18 427.27 537.41 435.62 536.11 444.03C535.69 446.75 534.65 448.02 531.65 447.86C526.94 447.62 522.2 447.8 517.08 447.8C517.08 450.85 517.08 453.38 517.08 456.3C511.27 456.3 505.86 456.3 499.98 456.3C499.98 450.03 499.98 443.73 499.98 436.94C491.69 436.94 483.84 436.94 475.57 436.94C475.57 443.21 475.57 449.51 475.57 456.27C461.24 456.27 447.34 456.27 433.18 456.27C433.18 433.46 433.18 410.69 433.18 387.31C469.44 387.31 505.61 387.31 542.93 387.31C542.01 398.19 541.4 408.55 540.18 418.83ZM584.09 303.06C578.97 289.28 574.01 275.95 568.89 262.17C577.8 259.34 586.5 256.57 595.39 253.75C599.45 265.25 603.34 275.96 606.9 286.77C607.25 287.83 605.88 290.17 604.68 290.92C598.07 295.05 591.28 298.87 584.09 303.06ZM631.56 385.46C618.38 387.92 605.41 390.33 591.61 392.91C591.61 376.43 591.61 360.48 591.61 344.15C603.84 346.68 616.4 349.21 628.91 351.97C629.97 352.2 631.43 354 631.45 355.09C631.64 365.05 631.56 375.01 631.56 385.46Z" fill="white"/>
<path d="M456.82 428.67C456.82 423.93 456.82 419.39 456.82 414.55C459.86 414.55 462.92 414.55 466.19 414.55C466.19 419.23 466.19 423.79 466.19 428.67C463.3 428.67 460.36 428.67 456.82 428.67Z" fill="white"/>
<path d="M466.12 394.59C466.12 398.8 466.12 402.79 466.12 407.12C463.32 407.12 460.36 407.12 457.02 407.12C457.02 403.03 457.02 398.94 457.02 394.59C459.94 394.59 462.88 394.59 466.12 394.59Z" fill="white"/>
<path d="M525.34 414.41C527.66 414.41 529.79 414.41 532.23 414.41C532.23 419.22 532.23 423.89 532.23 428.78C529.93 428.78 527.81 428.78 525.34 428.78C525.34 424.14 525.34 419.48 525.34 414.41Z" fill="white"/>
<path d="M442.39 414.44C444.54 414.44 446.79 414.44 449.4 414.44C449.4 419.29 449.4 423.93 449.4 428.81C447.12 428.81 445.01 428.81 442.39 428.81C442.39 424.22 442.39 419.54 442.39 414.44Z" fill="white"/>
<path d="M518.05 428.88C515.66 428.88 513.68 428.88 511.38 428.88C511.38 424.1 511.38 419.43 511.38 414.53C513.47 414.53 515.57 414.53 518.05 414.53C518.05 419.14 518.05 423.8 518.05 428.88Z" fill="white"/>
<path d="M472.33 414.43C474.53 414.43 476.5 414.43 478.85 414.43C478.85 419.14 478.85 423.76 478.85 428.69C476.73 428.69 474.67 428.69 472.33 428.69C472.33 423.93 472.33 419.27 472.33 414.43Z" fill="white"/>
<path d="M491.78 428.72C489.52 428.72 487.57 428.72 485.35 428.72C485.35 424.03 485.35 419.49 485.35 414.61C487.38 414.61 489.43 414.61 491.78 414.61C491.78 419.15 491.78 423.69 491.78 428.72Z" fill="white"/>
<path d="M504.69 428.82C502.46 428.82 500.51 428.82 498.22 428.82C498.22 424.1 498.22 419.47 498.22 414.57C500.31 414.57 502.37 414.57 504.69 414.57C504.69 419.37 504.69 424 504.69 428.82Z" fill="white"/>
<path d="M525.25 394.49C527.59 394.49 529.69 394.49 532.09 394.49C532.09 398.63 532.09 402.75 532.09 407.13C529.81 407.13 527.6 407.13 525.25 407.13C525.25 402.99 525.25 398.87 525.25 394.49Z" fill="white"/>
<path d="M449.48 394.59C449.48 398.79 449.48 402.75 449.48 407C447.17 407 444.96 407 442.33 407C442.33 402.99 442.33 398.93 442.33 394.59C444.45 394.59 446.67 394.59 449.48 394.59Z" fill="white"/>
<path d="M472.45 394.5C474.67 394.5 476.53 394.5 478.79 394.5C478.79 398.53 478.79 402.6 478.79 407.01C476.9 407.01 474.84 407.01 472.45 407.01C472.45 402.94 472.45 398.78 472.45 394.5Z" fill="white"/>
<path d="M485.21 406.96C485.21 402.76 485.21 398.89 485.21 394.7C487.4 394.7 489.46 394.7 491.83 394.7C491.83 398.68 491.83 402.66 491.83 406.96C489.76 406.96 487.69 406.96 485.21 406.96Z" fill="white"/>
<path d="M504.68 394.57C504.68 398.72 504.68 402.67 504.68 407C502.59 407 500.54 407 498.21 407C498.21 403.01 498.21 398.94 498.21 394.57C500.35 394.57 502.39 394.57 504.68 394.57Z" fill="white"/>
<path d="M511.39 394.49C513.77 394.49 515.75 394.49 518.05 394.49C518.05 398.72 518.05 402.78 518.05 407.11C515.8 407.11 513.73 407.11 511.39 407.11C511.39 403.01 511.39 398.94 511.39 394.49Z" fill="white"/>
<path d="M123.14 428.75C123.14 423.85 123.14 419.29 123.14 414.51C125.87 414.51 128.38 414.51 131.16 414.51C131.16 419.29 131.16 423.85 131.16 428.75C128.57 428.75 126.08 428.75 123.14 428.75Z" fill="white"/>
<path d="M211.49 414.5C211.49 419.44 211.49 423.99 211.49 428.78C208.51 428.78 205.84 428.78 202.82 428.78C202.82 424 202.82 419.36 202.82 414.5C205.77 414.5 208.44 414.5 211.49 414.5Z" fill="white"/>
<path d="M137.95 428.67C137.95 423.98 137.95 419.46 137.95 414.64C140.47 414.64 142.82 414.64 145.49 414.64C145.49 419.24 145.49 423.76 145.49 428.67C143.15 428.67 140.81 428.67 137.95 428.67Z" fill="white"/>
<path d="M211.66 394.54C211.66 398.79 211.66 402.78 211.66 407.15C208.8 407.15 206.11 407.15 203.11 407.15C203.11 403.29 203.11 399.06 203.11 394.54C205.81 394.54 208.48 394.54 211.66 394.54Z" fill="white"/>
<path d="M131.28 394.67C131.28 398.84 131.28 402.94 131.28 407.2C128.58 407.2 126.06 407.2 123.29 407.2C123.29 403.01 123.29 399.03 123.29 394.67C125.82 394.67 128.43 394.67 131.28 394.67Z" fill="white"/>
<path d="M183.78 428.79C181.23 428.79 179.4 428.79 177.38 428.79C177.38 423.91 177.38 419.24 177.38 414.42C179.64 414.42 181.61 414.42 183.78 414.42C183.78 419.25 183.78 423.89 183.78 428.79Z" fill="white"/>
<path d="M158.13 428.77C156.01 428.77 154.07 428.77 151.86 428.77C151.86 423.99 151.86 419.43 151.86 414.6C153.86 414.6 155.82 414.6 158.13 414.6C158.13 419.25 158.13 423.9 158.13 428.77Z" fill="white"/>
<path d="M138.2 394.51C140.75 394.51 143 394.51 145.53 394.51C145.53 398.76 145.53 402.8 145.53 407.06C143.06 407.06 140.81 407.06 138.2 407.06C138.2 402.99 138.2 398.93 138.2 394.51Z" fill="white"/>
<path d="M164.5 428.58C164.5 423.99 164.5 419.44 164.5 414.6C166.55 414.6 168.63 414.6 171.02 414.6C171.02 419.19 171.02 423.73 171.02 428.58C168.82 428.58 166.77 428.58 164.5 428.58Z" fill="white"/>
<path d="M158.15 407.18C155.95 407.18 154.11 407.18 151.98 407.18C151.98 403.01 151.98 398.93 151.98 394.58C153.95 394.58 155.88 394.58 158.15 394.58C158.15 398.6 158.15 402.66 158.15 407.18Z" fill="white"/>
<path d="M195.71 428.91C193.57 428.91 191.86 428.91 189.87 428.91C189.87 424.11 189.87 419.45 189.87 414.54C191.97 414.54 193.76 414.54 195.71 414.54C195.71 419.37 195.71 424.14 195.71 428.91Z" fill="white"/>
<path d="M177.56 407.17C177.56 402.8 177.56 398.58 177.56 394.24C179.75 394.24 181.57 394.24 183.76 394.24C183.76 398.61 183.76 402.79 183.76 407.17C181.49 407.17 179.56 407.17 177.56 407.17Z" fill="white"/>
<path d="M164.86 394.33C166.9 394.33 168.74 394.33 170.88 394.33C170.88 398.61 170.88 402.69 170.88 407.07C168.84 407.07 167.04 407.07 164.86 407.07C164.86 403.04 164.86 398.82 164.86 394.33Z" fill="white"/>
<path d="M195.86 407.22C193.85 407.22 192.05 407.22 190.02 407.22C190.02 403.07 190.02 398.98 190.02 394.58C191.9 394.58 193.68 394.58 195.86 394.58C195.86 398.57 195.86 402.63 195.86 407.22Z" fill="white"/>
<path d="M320.03 150.99C314.18 150.99 308.9 150.99 303.13 150.99C303.13 141.56 302.85 132.33 303.25 123.13C303.45 118.49 307.5 115.48 311.77 115.62C316.31 115.77 319.8 119.13 319.94 124.06C320.15 131.57 320.02 139.1 320.04 146.61C320.03 147.89 320.03 149.18 320.03 150.99Z" fill="white"/>
<path d="M334.16 150.92C334.16 141.75 333.91 132.83 334.25 123.93C334.45 118.74 338.01 115.65 342.49 115.65C347.06 115.65 350.47 118.7 350.65 123.94C350.95 132.84 350.73 141.75 350.73 150.93C345.13 150.92 339.99 150.92 334.16 150.92Z" fill="white"/>
<path d="M302.8 212.63C302.8 208.03 302.63 203.85 302.85 199.7C303.1 194.93 306.56 191.36 310.57 191.3C315.12 191.23 319.04 194.26 319.52 199C319.96 203.39 319.61 207.86 319.61 212.64C314.13 212.63 308.74 212.63 302.8 212.63Z" fill="white"/>
<path d="M334.8 212.5C334.8 208 334.65 203.81 334.84 199.64C335.07 194.67 339 191.03 343.53 191.27C348.16 191.51 351.14 194.83 351.22 199.97C351.29 204.01 351.23 208.05 351.23 212.5C345.79 212.5 340.55 212.5 334.8 212.5Z" fill="white"/>
<path d="M611.57 369.08C611.68 372.98 608.81 375.93 604.83 376.02C601.4 376.1 598.81 373.67 598.63 370.21C598.42 366.11 601.12 363.02 604.92 363.02C608.5 363.02 611.47 365.73 611.57 369.08Z" fill="white"/>
<path d="M49.4299 375.98C46.2999 375.92 43.3599 372.96 43.3599 369.87C43.3599 365.91 46.2199 363.06 50.1799 363.09C53.5799 363.11 56.2399 365.99 56.1799 369.59C56.1199 373.14 53.0499 376.04 49.4299 375.98Z" fill="white"/>
<path d="M326.76 288.53C329.84 288.62 332.73 291.41 332.72 294.3C332.72 297.45 329.65 300.38 326.44 300.28C323.38 300.19 320.74 297.32 320.88 294.26C321.04 291.04 323.7 288.44 326.76 288.53Z" fill="white"/>
<path d="M48.5099 515.482H78.2303C81.9941 515.482 85.1127 515.872 87.586 516.652C90.0863 517.404 92.2236 518.56 93.9979 520.12C95.7992 521.679 97.1837 523.534 98.1515 525.685C99.1193 527.809 99.6033 530.067 99.6033 532.46C99.6033 537.272 97.7483 541.304 94.0382 544.557C90.3551 547.81 85.2606 549.437 78.7546 549.437H69.1569V559.962C69.1569 561.279 69.251 562.113 69.4392 562.462C69.6812 562.973 70.0441 563.349 70.528 563.591C71.0388 563.833 71.8857 563.954 73.0686 563.954H75.9317V571.737H48.5099V563.954H50.4052C52.072 563.954 53.1743 563.833 53.712 563.591C54.2497 563.349 54.6395 562.973 54.8814 562.462C55.1234 561.925 55.2444 560.836 55.2444 559.196V528.266C55.2444 526.545 55.1368 525.416 54.9218 524.878C54.7067 524.314 54.3572 523.91 53.8733 523.668C53.4162 523.4 52.5291 523.265 51.2117 523.265H48.5099V515.482ZM69.1569 524.677V540.646H73.9558C76.8861 540.646 79.0369 540.35 80.408 539.759C81.7791 539.14 82.8813 538.213 83.7147 536.976C84.5481 535.713 84.9648 534.22 84.9648 532.5C84.9648 529.919 83.9701 527.876 81.9807 526.37C80.5021 525.241 78.311 524.677 75.4075 524.677H69.1569ZM123.234 515.482H135.857L152.753 558.914C153.667 561.226 154.474 562.65 155.173 563.188C155.899 563.726 157.216 563.981 159.125 563.954V571.737H132.51V563.954L134.123 563.914C135.601 563.914 136.636 563.726 137.228 563.349C137.819 562.946 138.115 562.462 138.115 561.898C138.115 561.414 137.859 560.419 137.349 558.914L135.695 553.792H118.557L116.46 559.478C116.029 560.688 115.814 561.481 115.814 561.857C115.814 562.288 115.962 562.677 116.258 563.027C116.581 563.376 117.091 563.632 117.79 563.793C118.247 563.901 119.511 563.954 121.581 563.954V571.737H99.8049V563.954C101.203 563.954 102.224 563.833 102.87 563.591C103.515 563.349 104.039 562.987 104.442 562.503C104.873 562.019 105.343 561.118 105.854 559.801L123.234 515.482ZM121.5 545.767H132.751L127.267 530.282L121.5 545.767ZM166.303 513.587H171.626L172.191 515.482H203.927L204.613 513.587H209.976L216.953 533.306L209.452 535.928C207.785 532.648 206.589 530.51 205.863 529.516C204.438 527.553 202.798 526.007 200.943 524.878C199.545 524.018 198.161 523.588 196.79 523.588C196.144 523.588 195.701 523.749 195.459 524.072C195.217 524.367 195.096 525.066 195.096 526.169V558.51C195.096 560.419 195.163 561.615 195.298 562.099C195.432 562.583 195.66 562.973 195.983 563.269C196.306 563.538 196.749 563.726 197.314 563.833C197.878 563.914 199.384 563.954 201.83 563.954V571.737H174.408V563.954H176.062C177.89 563.954 179.059 563.847 179.57 563.632C180.081 563.39 180.471 562.987 180.74 562.422C181.009 561.83 181.143 560.621 181.143 558.793V525.725C181.143 524.784 181.035 524.193 180.82 523.951C180.605 523.709 180.148 523.588 179.449 523.588C178.051 523.588 176.492 524.112 174.771 525.16C173.051 526.209 171.518 527.688 170.174 529.596C169.637 530.349 168.494 532.46 166.747 535.928L159.367 533.306L166.303 513.587ZM220.058 515.482H254.738C256.97 515.482 259.403 515.684 262.037 516.087C264.699 516.49 267.092 517.377 269.216 518.749C271.366 520.12 273.033 521.854 274.216 523.951C275.399 526.048 275.99 528.413 275.99 531.048C275.99 535.323 274.458 538.791 271.393 541.452C268.355 544.087 264.753 545.808 260.586 546.614L272.159 560.083L272.643 560.688C273.396 561.602 274.082 562.288 274.7 562.745C275.318 563.175 275.937 563.484 276.555 563.672C277.173 563.86 278.034 563.954 279.136 563.954H281.555V571.737H263.53L245.463 547.501H240.786V558.712C240.786 560.648 240.893 561.884 241.108 562.422C241.323 562.933 241.659 563.323 242.116 563.591C242.6 563.833 243.555 563.954 244.979 563.954H247.56V571.737H220.058V563.954H222.558C223.875 563.954 224.803 563.82 225.341 563.551C225.905 563.255 226.322 562.825 226.591 562.261C226.725 561.938 226.792 560.93 226.792 559.236V527.58C226.792 526.343 226.685 525.47 226.47 524.959C226.282 524.421 225.959 524.072 225.502 523.91C224.857 523.615 224.117 523.467 223.284 523.467L222.155 523.507H220.058V515.482ZM240.786 524.717V539.275H249.133C252.413 539.275 254.859 538.979 256.472 538.387C258.112 537.769 259.336 536.895 260.142 535.766C260.976 534.637 261.392 533.266 261.392 531.653C261.392 530.174 261.002 528.911 260.223 527.862C259.47 526.787 258.381 525.994 256.956 525.483C255.558 524.972 253.26 524.717 250.061 524.717H240.786ZM284.338 515.482H311.76V523.265H309.26C307.808 523.265 306.84 523.4 306.356 523.668C305.899 523.91 305.55 524.314 305.308 524.878C305.093 525.416 304.985 526.464 304.985 528.024V559.156C304.985 560.849 305.079 561.938 305.267 562.422C305.455 562.906 305.778 563.255 306.235 563.47C306.8 563.793 307.646 563.954 308.776 563.954H311.76V571.737H284.338V563.954H286.556C288.142 563.954 289.177 563.847 289.661 563.632C290.145 563.39 290.494 563.027 290.709 562.543C290.951 562.032 291.072 561.037 291.072 559.559V528.306C291.072 526.558 290.951 525.416 290.709 524.878C290.494 524.314 290.118 523.883 289.58 523.588C289.204 523.373 288.29 523.265 286.838 523.265H284.338V515.482ZM317.809 515.482H343.255L353.014 549.719L363.135 515.482H389.025V523.265H386.242C384.737 523.265 383.688 523.588 383.097 524.233C382.532 524.851 382.25 526.034 382.25 527.782V559.72C382.25 561.118 382.331 561.992 382.492 562.341C382.734 562.879 383.07 563.255 383.5 563.47C384.092 563.793 384.871 563.954 385.839 563.954H389.025V571.737H361.966V563.954H364.063C365.595 563.954 366.63 563.833 367.168 563.591C367.706 563.349 368.096 562.987 368.338 562.503C368.606 561.992 368.741 561.064 368.741 559.72V525.12L355.03 571.737H347.247L333.98 526.612V560.809C333.98 561.589 334.114 562.193 334.383 562.624C334.679 563.054 335.082 563.39 335.593 563.632C336.13 563.847 336.977 563.954 338.133 563.954H340.835V571.737H317.809V563.954H320.067C321.492 563.954 322.46 563.833 322.97 563.591C323.508 563.323 323.898 562.919 324.14 562.382C324.409 561.817 324.543 560.795 324.543 559.317V527.782C324.543 526.33 324.449 525.389 324.261 524.959C324.019 524.367 323.656 523.937 323.172 523.668C322.688 523.4 321.922 523.265 320.874 523.265H317.809V515.482ZM425.52 514.514C434.446 514.514 441.664 517.23 447.175 522.66C452.714 528.091 455.483 535.067 455.483 543.59C455.483 549.316 454.219 554.397 451.692 558.833C449.165 563.269 445.67 566.697 441.207 569.116C436.771 571.509 431.408 572.705 425.117 572.705C416.81 572.705 410.008 570.42 404.712 565.85C398.313 560.338 395.114 552.972 395.114 543.751C395.114 535.175 397.91 528.158 403.502 522.701C409.121 517.243 416.46 514.514 425.52 514.514ZM425.681 523.467C421.407 523.467 418.006 525.066 415.479 528.266C412.307 532.298 410.72 537.5 410.72 543.872C410.72 550.243 412.199 555.284 415.156 558.994C417.71 562.167 421.084 563.753 425.278 563.753C429.499 563.753 432.873 562.167 435.4 558.994C438.384 555.204 439.876 550.136 439.876 543.791C439.876 539.328 439.231 535.578 437.941 532.54C436.677 529.502 434.957 527.231 432.779 525.725C430.601 524.22 428.235 523.467 425.681 523.467ZM440.32 506.046L437.134 511.49L425.319 507.094L413.503 511.49L410.317 506.046L425.319 496.972L440.32 506.046ZM461.451 515.482H484.316L500.809 548.308V528.225C500.809 526.505 500.715 525.429 500.527 524.999C500.258 524.354 499.895 523.91 499.438 523.668C498.981 523.4 498.094 523.265 496.777 523.265H494.035V515.482H517.262V523.265H514.682C513.391 523.265 512.464 523.413 511.899 523.709C511.361 524.004 510.985 524.408 510.77 524.919C510.555 525.429 510.447 526.532 510.447 528.225V571.737H498.874L477.985 530.282V559.276C477.985 560.943 478.079 562.005 478.267 562.462C478.482 562.919 478.845 563.282 479.356 563.551C479.893 563.82 480.808 563.954 482.098 563.954H484.8V571.737H461.451V563.954H463.87C465.215 563.954 466.129 563.847 466.613 563.632C467.123 563.39 467.527 562.987 467.822 562.422C468.118 561.857 468.266 561.011 468.266 559.881V527.62C468.266 526.384 468.132 525.483 467.863 524.919C467.594 524.327 467.231 523.91 466.774 523.668C466.317 523.4 465.551 523.265 464.475 523.265H461.451V515.482ZM522.263 515.482H549.685V523.265H547.185C545.733 523.265 544.765 523.4 544.281 523.668C543.824 523.91 543.475 524.314 543.233 524.878C543.017 525.416 542.91 526.464 542.91 528.024V559.156C542.91 560.849 543.004 561.938 543.192 562.422C543.38 562.906 543.703 563.255 544.16 563.47C544.725 563.793 545.571 563.954 546.701 563.954H549.685V571.737H522.263V563.954H524.481C526.067 563.954 527.102 563.847 527.586 563.632C528.07 563.39 528.419 563.027 528.634 562.543C528.876 562.032 528.997 561.037 528.997 559.559V528.306C528.997 526.558 528.876 525.416 528.634 524.878C528.419 524.314 528.043 523.883 527.505 523.588C527.129 523.373 526.215 523.265 524.763 523.265H522.263V515.482ZM585.777 514.514C594.702 514.514 601.921 517.23 607.432 522.66C612.97 528.091 615.739 535.067 615.739 543.59C615.739 549.316 614.476 554.397 611.949 558.833C609.421 563.269 605.926 566.697 601.464 569.116C597.028 571.509 591.664 572.705 585.374 572.705C577.066 572.705 570.265 570.42 564.968 565.85C558.57 560.338 555.371 552.972 555.371 543.751C555.371 535.175 558.167 528.158 563.759 522.701C569.377 517.243 576.717 514.514 585.777 514.514ZM585.938 523.467C581.664 523.467 578.263 525.066 575.736 528.266C572.563 532.298 570.977 537.5 570.977 543.872C570.977 550.243 572.456 555.284 575.413 558.994C577.967 562.167 581.341 563.753 585.535 563.753C589.756 563.753 593.13 562.167 595.657 558.994C598.641 555.204 600.133 550.136 600.133 543.791C600.133 539.328 599.488 535.578 598.197 532.54C596.934 529.502 595.213 527.231 593.036 525.725C590.858 524.22 588.492 523.467 585.938 523.467Z" fill="white"/>
</svg>
