<svg width="19" height="22" viewBox="0 0 19 22" fill="none" xmlns="http://www.w3.org/2000/svg">
<path d="M19 16.5405H16V13.5405H14V16.5405H11V18.5405H14V21.5405H16V18.5405H19M2 0.540527C1.46957 0.540527 0.960859 0.751241 0.585786 1.12631C0.210714 1.50139 0 2.01009 0 2.54053V18.5405C0 19.6505 0.89 20.5405 2 20.5405H9.81C9.45 19.9205 9.2 19.2405 9.08 18.5405H2V2.54053H9V7.54053H14V11.6205C14.33 11.5705 14.67 11.5405 15 11.5405C15.34 11.5405 15.67 11.5705 16 11.6205V6.54053L10 0.540527M4 10.5405V12.5405H12V10.5405M4 14.5405V16.5405H9V14.5405H4Z" fill="#757575"/>
</svg>
