<svg width="20" height="21" viewBox="0 0 20 21" fill="none" xmlns="http://www.w3.org/2000/svg">
<path fill-rule="evenodd" clip-rule="evenodd" d="M9.99967 6.86654C9.11562 6.86654 8.26777 7.21772 7.64265 7.84285C7.01753 8.46797 6.66634 9.31581 6.66634 10.1999C6.66634 11.0839 7.01753 11.9318 7.64265 12.5569C8.26777 13.182 9.11562 13.5332 9.99967 13.5332C10.8837 13.5332 11.7316 13.182 12.3567 12.5569C12.9818 11.9318 13.333 11.0839 13.333 10.1999C13.333 9.31581 12.9818 8.46797 12.3567 7.84285C11.7316 7.21772 10.8837 6.86654 9.99967 6.86654ZM8.82116 9.02136C9.13372 8.7088 9.55765 8.5332 9.99967 8.5332C10.4417 8.5332 10.8656 8.7088 11.1782 9.02136C11.4907 9.33392 11.6663 9.75784 11.6663 10.1999C11.6663 10.6419 11.4907 11.0658 11.1782 11.3784C10.8656 11.6909 10.4417 11.8665 9.99967 11.8665C9.55765 11.8665 9.13372 11.6909 8.82116 11.3784C8.5086 11.0658 8.33301 10.6419 8.33301 10.1999C8.33301 9.75784 8.5086 9.33392 8.82116 9.02136Z" fill="#5C5E64"/>
<path fill-rule="evenodd" clip-rule="evenodd" d="M9.15051 1.0332C8.77197 1.0332 8.44098 1.28834 8.34462 1.65441L7.92233 3.25874L6.58063 3.82434L5.55358 2.9106C5.22383 2.61723 4.72251 2.63185 4.41042 2.94395L2.74375 4.61061C2.44183 4.91253 2.41696 5.39381 2.68615 5.72524L3.58625 6.8335L3.03429 8.19143L1.47689 8.55502C1.09978 8.64306 0.833008 8.97928 0.833008 9.36654V11.0332C0.833008 11.409 1.0845 11.7383 1.44702 11.8372L3.05675 12.2763L3.62388 13.6216L2.71106 14.6452C2.41705 14.9749 2.43139 15.4768 2.74375 15.7891L4.41042 17.4558C4.71274 17.7581 5.19482 17.7826 5.52621 17.5124L6.63408 16.6093L7.95863 17.1542L8.35837 18.7372C8.45181 19.1073 8.78468 19.3665 9.16634 19.3665H10.833C11.2145 19.3665 11.5473 19.1075 11.6409 18.7376L12.0416 17.1539L13.4105 16.5869C13.5483 16.7024 13.7063 16.8381 13.8635 16.975C14.0197 17.111 14.1649 17.2392 14.2711 17.3335C14.3242 17.3806 14.3674 17.4191 14.3973 17.4458L14.4426 17.4863C14.7721 17.7819 15.2759 17.7688 15.5889 17.4558L17.2556 15.7891C17.5623 15.4824 17.5825 14.9917 17.3019 14.6609L16.3942 13.5904L16.9559 12.2337L18.5426 11.8214C18.9099 11.726 19.1663 11.3944 19.1663 11.0149V9.36654C19.1663 8.98544 18.9078 8.65289 18.5385 8.55893L16.9616 8.15774L16.4013 6.80432L17.3028 5.73783C17.5825 5.40695 17.5619 4.91696 17.2556 4.61061L15.5889 2.94395C15.2813 2.63635 14.7889 2.6171 14.4582 2.89974L13.3996 3.8046L11.9985 3.22853L11.5848 1.65468C11.4885 1.28848 11.1575 1.0332 10.7788 1.0332H9.15051ZM15.5343 15.1534L14.9642 15.7235L14.9579 15.7181C14.6502 15.4501 14.2537 15.111 14.0302 14.9511C13.7961 14.7838 13.4924 14.749 13.2266 14.8591L11.0175 15.7741C10.7743 15.8748 10.593 16.0845 10.5285 16.3396L10.1843 17.6999H9.8154L9.47181 16.3392C9.40717 16.0832 9.22504 15.873 8.98086 15.7725L6.8092 14.8792C6.52642 14.7629 6.20264 14.8108 5.96564 15.004L5.05662 15.745L4.47877 15.1671L5.21829 14.3378C5.43238 14.0978 5.48918 13.7559 5.36423 13.4595L4.43507 11.2553C4.33565 11.0195 4.1334 10.8424 3.8865 10.7751L2.49967 10.3968V10.0277L3.8333 9.71638C4.09676 9.65487 4.31396 9.4693 4.41584 9.21866L5.31584 7.0045C5.4303 6.72289 5.38235 6.40129 5.1907 6.16533L4.4536 5.25778L5.03307 4.67831L5.86577 5.41914C6.10583 5.63271 6.44729 5.68924 6.74338 5.56443L8.94755 4.63526C9.18578 4.53483 9.36391 4.32952 9.42972 4.0795L9.79287 2.69987H10.1363L10.4921 4.0534C10.5585 4.30604 10.7395 4.51293 10.9811 4.61227L13.2369 5.53977C13.5262 5.65868 13.8576 5.60567 14.0953 5.4025L14.9553 4.66737L15.5352 5.24721L14.8007 6.11608C14.5995 6.35418 14.548 6.68471 14.6672 6.97277L15.5814 9.18111C15.6819 9.42397 15.8911 9.60517 16.1459 9.66998L17.4997 10.0144V10.3704L16.1351 10.725C15.8822 10.7907 15.6747 10.9713 15.5747 11.2128L14.6597 13.4228C14.5403 13.7113 14.5921 14.0423 14.7941 14.2805L15.5343 15.1534Z" fill="#5C5E64"/>
</svg>
