<svg width="21" height="22" viewBox="0 0 21 22" fill="none" xmlns="http://www.w3.org/2000/svg">
<path fill-rule="evenodd" clip-rule="evenodd" d="M15.2441 3.42701C15.4087 3.29876 15.6175 3.2411 15.8246 3.26669C16.0318 3.29228 16.2202 3.39904 16.3487 3.56351L17.973 5.64461C18.1016 5.80933 18.1594 6.01835 18.1338 6.2257C18.1082 6.43305 18.0013 6.62174 17.8366 6.75026C17.6718 6.87878 17.4628 6.9366 17.2555 6.911C17.0481 6.8854 16.8594 6.77848 16.7309 6.61376L15.1086 4.53056C14.9804 4.36593 14.9227 4.15713 14.9483 3.95001C14.9739 3.7429 15.0807 3.55441 15.2452 3.42596" fill="#5C5E64"/>
<path fill-rule="evenodd" clip-rule="evenodd" d="M17.8313 5.50389C17.7491 5.44096 17.6553 5.39483 17.5553 5.36816C17.4554 5.34149 17.3511 5.33478 17.2485 5.34843C17.1459 5.36209 17.047 5.39583 16.9575 5.44773C16.8679 5.49962 16.7895 5.56866 16.7267 5.65089L15.1034 7.76874C15.0366 7.85043 14.987 7.94468 14.9574 8.04591C14.9278 8.14714 14.9189 8.25329 14.9311 8.35805C14.9433 8.4628 14.9764 8.56404 15.0285 8.65576C15.0806 8.74747 15.1505 8.82779 15.2343 8.89194C15.318 8.9561 15.4137 9.00278 15.5158 9.02923C15.6179 9.05568 15.7243 9.06135 15.8286 9.0459C15.9329 9.03046 16.0331 8.99421 16.1232 8.93932C16.2132 8.88442 16.2913 8.812 16.3529 8.72634L17.9772 6.60849C18.0401 6.52633 18.0863 6.43258 18.1129 6.33258C18.1396 6.23258 18.1463 6.12831 18.1327 6.02572C18.119 5.92313 18.0853 5.82424 18.0334 5.7347C17.9815 5.64516 17.9135 5.56673 17.8313 5.50389Z" fill="#5C5E64"/>
<path fill-rule="evenodd" clip-rule="evenodd" d="M2.60352 10.3296C2.60352 8.9372 3.15664 7.60185 4.1412 6.61728C5.12577 5.63271 6.46113 5.07959 7.85352 5.07959H16.1065C16.385 5.07959 16.6521 5.19021 16.849 5.38713C17.0459 5.58404 17.1565 5.85111 17.1565 6.12959C17.1565 6.40807 17.0459 6.67514 16.849 6.87205C16.6521 7.06896 16.385 7.17959 16.1065 7.17959H7.85352C7.01808 7.17959 6.21687 7.51146 5.62613 8.1022C5.03539 8.69294 4.70352 9.49416 4.70352 10.3296V11.3796C4.70352 11.6581 4.59289 11.9251 4.39598 12.1221C4.19906 12.319 3.93199 12.4296 3.65352 12.4296C3.37504 12.4296 3.10797 12.319 2.91105 12.1221C2.71414 11.9251 2.60352 11.6581 2.60352 11.3796V10.3296ZM5.76192 18.654C5.68037 18.7177 5.58707 18.7646 5.48736 18.7922C5.38766 18.8198 5.28349 18.8275 5.18081 18.8148C5.07813 18.8022 4.97896 18.7694 4.88895 18.7184C4.79895 18.6673 4.71988 18.5991 4.65627 18.5175L3.03402 16.4374C2.96785 16.3562 2.91856 16.2626 2.88904 16.162C2.85951 16.0615 2.85034 15.9561 2.86207 15.852C2.8738 15.7479 2.90619 15.6471 2.95733 15.5557C3.00848 15.4643 3.07736 15.3839 3.15995 15.3195C3.24253 15.255 3.33714 15.2076 3.43826 15.1802C3.53937 15.1527 3.64495 15.1457 3.7488 15.1596C3.85266 15.1734 3.9527 15.2079 4.04308 15.2609C4.13345 15.3139 4.21234 15.3844 4.27512 15.4683L5.89947 17.5504C6.02772 17.7151 6.08538 17.9239 6.05978 18.131C6.03419 18.3381 5.92743 18.5266 5.76297 18.655" fill="#5C5E64"/>
<path fill-rule="evenodd" clip-rule="evenodd" d="M3.17496 16.5772C3.34082 16.704 3.55023 16.7597 3.75717 16.7322C3.9641 16.7046 4.15162 16.596 4.27851 16.4302L5.90286 14.3124C6.02225 14.1462 6.07226 13.94 6.04229 13.7376C6.01233 13.5352 5.90474 13.3524 5.74231 13.2279C5.57989 13.1034 5.37539 13.047 5.17213 13.0707C4.96887 13.0944 4.78281 13.1963 4.65336 13.3548L3.02796 15.4716C2.96497 15.5537 2.91878 15.6474 2.89202 15.7473C2.86526 15.8473 2.85847 15.9515 2.87202 16.0541C2.88557 16.1567 2.91921 16.2556 2.97101 16.3452C3.02281 16.4348 3.09176 16.5133 3.17391 16.5762" fill="#5C5E64"/>
<path fill-rule="evenodd" clip-rule="evenodd" d="M18.4027 11.7514C18.4027 13.1438 17.8496 14.4791 16.865 15.4637C15.8804 16.4482 14.5451 17.0014 13.1527 17.0014H4.89863C4.62016 17.0014 4.35308 16.8907 4.15617 16.6938C3.95926 16.4969 3.84863 16.2298 3.84863 15.9514C3.84863 15.6729 3.95926 15.4058 4.15617 15.2089C4.35308 15.012 4.62016 14.9014 4.89863 14.9014H13.1516C13.9871 14.9014 14.7883 14.5695 15.379 13.9788C15.9698 13.388 16.3016 12.5868 16.3016 11.7514V10.7014C16.3016 10.4229 16.4123 10.1558 16.6092 9.95891C16.8061 9.76199 17.0732 9.65137 17.3516 9.65137C17.6301 9.65137 17.8972 9.76199 18.0941 9.95891C18.291 10.1558 18.4016 10.4229 18.4016 10.7014L18.4027 11.7514Z" fill="#5C5E64"/>
</svg>
