<svg width="20" height="17" viewBox="0 0 20 17" fill="none" xmlns="http://www.w3.org/2000/svg">
<path d="M0 16.5405H20V3.54053C20 2.74053 19.68 1.98053 19.12 1.42053C18.56 0.860527 17.8 0.540527 17 0.540527H3C2.2 0.540527 1.44 0.860527 0.88 1.42053C0.32 1.98053 0 2.74053 0 3.54053V16.5405ZM18 7.54053H13V5.54053H7V7.54053H2V3.54053C2 3.28053 2.11 3.04053 2.29 2.83053C2.5 2.65053 2.74 2.54053 3 2.54053H17C17.27 2.54053 17.5 2.65053 17.71 2.83053C17.9 3.04053 18 3.28053 18 3.54053V7.54053ZM13 9.54053H18V14.5405H2V9.54053H7L9 11.5405H11L13 9.54053ZM9 7.54053H11V9.54053H9V7.54053Z" fill="#5C5E64"/>
</svg>
