<svg width="20" height="21" viewBox="0 0 20 21" fill="none" xmlns="http://www.w3.org/2000/svg">
<path fill-rule="evenodd" clip-rule="evenodd" d="M13.0003 2.20728C12.6467 2.20728 12.3076 2.34775 12.0575 2.5978C11.8075 2.84785 11.667 3.18699 11.667 3.54061V7.20727H8.00032C7.64671 7.20727 7.30757 7.34775 7.05752 7.5978C6.80746 7.84785 6.66699 8.18699 6.66699 8.54061V13.0406H3.00033C2.6467 13.0406 2.30757 13.1811 2.05752 13.4311C1.80747 13.6812 1.66699 14.0203 1.66699 14.3739V17.5406C1.66699 17.8942 1.80747 18.2334 2.05752 18.4834C2.30757 18.7335 2.6467 18.8739 3.00033 18.8739H17.0003C17.3539 18.8739 17.6931 18.7335 17.9431 18.4834C18.1932 18.2334 18.3337 17.8942 18.3337 17.5406V3.54061C18.3337 3.18699 18.1932 2.84785 17.9431 2.5978C17.6931 2.34775 17.3539 2.20728 17.0003 2.20728H13.0003ZM8.33366 8.87394H11.667V17.2073H8.33366V8.87394ZM16.667 17.2073H13.3337V3.87394H16.667V17.2073ZM6.66699 14.7073V17.2073H3.33366V14.7073H6.66699Z" fill="#757575"/>
</svg>
